<mxfile modified="2023-03-17T18:15:28.242Z" host="app.diagrams.net" agent="5.0 (X11; Linux x86_64) AppleWebKit/537.36 (KHTML, like Gecko) Chrome/110.0.0.0 Safari/537.36" etag="z5wPACxEl4EBuV6uFqiC" version="21.0.7" type="github">
  <diagram id="Ht1M8jgEwFfnCIfOTk4-" name="Page-1">
    <mxGraphModel dx="1433" dy="800" grid="1" gridSize="10" guides="1" tooltips="1" connect="1" arrows="1" fold="1" page="1" pageScale="1" pageWidth="1169" pageHeight="827" math="0" shadow="0">
      <root>
        <mxCell id="0" />
        <mxCell id="1" parent="0" />
        <mxCell id="6ciUN1QbZPSy4jL6s6Ek-6" value="" style="rounded=1;whiteSpace=wrap;html=1;strokeWidth=3;fontSize=30;fillColor=none;strokeColor=#FF5314;" parent="1" vertex="1">
          <mxGeometry x="93" y="40" width="1020" height="740" as="geometry" />
        </mxCell>
        <mxCell id="6ciUN1QbZPSy4jL6s6Ek-3" value="" style="rounded=0;whiteSpace=wrap;html=1;dashed=1;strokeWidth=5;fillColor=none;" parent="1" vertex="1">
          <mxGeometry x="437" y="121" width="443" height="166" as="geometry" />
        </mxCell>
        <mxCell id="xgc6DM9Copx6KXdF2zNQ-7" value="" style="rounded=0;whiteSpace=wrap;html=1;dashed=1;strokeWidth=5;fillColor=none;" parent="1" vertex="1">
          <mxGeometry x="437" y="321" width="443" height="399" as="geometry" />
        </mxCell>
        <mxCell id="UEzPUAAOIrF-is8g5C7q-109" value="&lt;div&gt;Client&lt;/div&gt;&lt;div&gt;&lt;br&gt;&lt;/div&gt;" style="outlineConnect=0;gradientColor=none;fontColor=#545B64;strokeColor=none;fillColor=#879196;dashed=0;verticalLabelPosition=bottom;verticalAlign=top;align=center;html=1;fontSize=12;fontStyle=0;aspect=fixed;shape=mxgraph.aws4.illustration_desktop;pointerEvents=1;labelBackgroundColor=#ffffff;" parent="1" vertex="1">
          <mxGeometry x="213" y="160" width="100" height="91" as="geometry" />
        </mxCell>
        <mxCell id="Y8FRlR6LI_EW2aDHlQSC-1" value="" style="sketch=0;outlineConnect=0;fontColor=#232F3E;gradientColor=none;fillColor=#2E27AD;strokeColor=none;dashed=0;verticalLabelPosition=bottom;verticalAlign=top;align=center;html=1;fontSize=12;fontStyle=0;aspect=fixed;pointerEvents=1;shape=mxgraph.aws4.rds_postgresql_instance_alt;" parent="1" vertex="1">
          <mxGeometry x="742" y="161.5" width="80" height="80" as="geometry" />
        </mxCell>
        <mxCell id="Y8FRlR6LI_EW2aDHlQSC-2" value="" style="dashed=0;outlineConnect=0;html=1;align=center;labelPosition=center;verticalLabelPosition=bottom;verticalAlign=top;shape=mxgraph.webicons.apache;gradientColor=#DFDEDE" parent="1" vertex="1">
          <mxGeometry x="495" y="161.5" width="80" height="80" as="geometry" />
        </mxCell>
        <mxCell id="6ciUN1QbZPSy4jL6s6Ek-4" value="" style="endArrow=classic;startArrow=classic;html=1;rounded=1;entryX=-0.01;entryY=0.504;entryDx=0;entryDy=0;entryPerimeter=0;jumpSize=60;strokeColor=default;sketch=0;strokeWidth=4;" parent="1" target="6ciUN1QbZPSy4jL6s6Ek-3" edge="1">
          <mxGeometry width="50" height="50" relative="1" as="geometry">
            <mxPoint x="320" y="205" as="sourcePoint" />
            <mxPoint x="380" y="170" as="targetPoint" />
          </mxGeometry>
        </mxCell>
        <mxCell id="6ciUN1QbZPSy4jL6s6Ek-5" value="https" style="edgeLabel;html=1;align=center;verticalAlign=middle;resizable=0;points=[];fontSize=30;" parent="6ciUN1QbZPSy4jL6s6Ek-4" vertex="1" connectable="0">
          <mxGeometry x="-0.1285" y="-2" relative="1" as="geometry">
            <mxPoint x="7" y="-1" as="offset" />
          </mxGeometry>
        </mxCell>
        <mxCell id="6ciUN1QbZPSy4jL6s6Ek-7" value="&lt;font color=&quot;#FF642B&quot;&gt;Draw.io&lt;/font&gt;" style="text;html=1;align=center;verticalAlign=middle;resizable=0;points=[];autosize=1;strokeColor=none;fillColor=none;fontSize=30;" parent="1" vertex="1">
          <mxGeometry x="203" y="71" width="120" height="50" as="geometry" />
        </mxCell>
        <mxCell id="xgc6DM9Copx6KXdF2zNQ-11" value="" style="edgeStyle=orthogonalEdgeStyle;rounded=0;orthogonalLoop=1;jettySize=auto;html=1;strokeWidth=6;fontSize=30;fontColor=#FF6E42;exitX=1;exitY=0.5;exitDx=0;exitDy=0;exitPerimeter=0;" parent="1" source="xgc6DM9Copx6KXdF2zNQ-3" edge="1">
          <mxGeometry relative="1" as="geometry">
            <mxPoint x="700.3000000000002" y="446" as="targetPoint" />
          </mxGeometry>
        </mxCell>
        <mxCell id="xgc6DM9Copx6KXdF2zNQ-13" style="edgeStyle=orthogonalEdgeStyle;rounded=0;orthogonalLoop=1;jettySize=auto;html=1;strokeWidth=6;fontSize=30;fontColor=#FF6E42;" parent="1" source="xgc6DM9Copx6KXdF2zNQ-3" target="xgc6DM9Copx6KXdF2zNQ-4" edge="1">
          <mxGeometry relative="1" as="geometry" />
        </mxCell>
        <mxCell id="xgc6DM9Copx6KXdF2zNQ-3" value="" style="outlineConnect=0;dashed=0;verticalLabelPosition=bottom;verticalAlign=top;align=center;html=1;shape=mxgraph.aws3.android;fillColor=#205E00;gradientColor=none;" parent="1" vertex="1">
          <mxGeometry x="635" y="484" width="38.5" height="44" as="geometry" />
        </mxCell>
        <mxCell id="xgc6DM9Copx6KXdF2zNQ-4" value="" style="shape=image;html=1;verticalAlign=top;verticalLabelPosition=bottom;labelBackgroundColor=#ffffff;imageAspect=0;aspect=fixed;image=https://cdn1.iconfinder.com/data/icons/bootstrap-vol-3/16/filetype-js-128.png" parent="1" vertex="1">
          <mxGeometry x="583" y="400" width="46" height="46" as="geometry" />
        </mxCell>
        <mxCell id="xgc6DM9Copx6KXdF2zNQ-9" style="edgeStyle=orthogonalEdgeStyle;rounded=0;orthogonalLoop=1;jettySize=auto;html=1;exitX=0.5;exitY=0;exitDx=0;exitDy=0;entryX=0.5;entryY=1;entryDx=0;entryDy=0;entryPerimeter=0;fontSize=30;fontColor=#FF6E42;strokeWidth=6;" parent="1" target="xgc6DM9Copx6KXdF2zNQ-3" edge="1">
          <mxGeometry relative="1" as="geometry">
            <mxPoint x="654.25" y="612" as="sourcePoint" />
          </mxGeometry>
        </mxCell>
        <mxCell id="xgc6DM9Copx6KXdF2zNQ-8" value="&lt;div style=&quot;font-size: 30px;&quot;&gt;Nuxt bundles all&amp;nbsp;&lt;/div&gt;&lt;div style=&quot;font-size: 30px;&quot;&gt;of the sources together&lt;/div&gt;&lt;div style=&quot;font-size: 30px;&quot;&gt;and serves them on the&lt;/div&gt;&lt;div style=&quot;font-size: 30px;&quot;&gt;frontend&lt;/div&gt;" style="text;html=1;align=center;verticalAlign=middle;resizable=0;points=[];autosize=1;strokeColor=none;fillColor=none;fontColor=#FF6E42;labelBackgroundColor=default;" parent="1" vertex="1">
          <mxGeometry x="737" y="425" width="340" height="160" as="geometry" />
        </mxCell>
        <mxCell id="Xhj2NyioV35wxlFT5s1F-1" value="" style="shape=image;html=1;verticalAlign=top;verticalLabelPosition=bottom;labelBackgroundColor=#ffffff;imageAspect=0;aspect=fixed;image=https://cdn1.iconfinder.com/data/icons/bootstrap-vol-3/16/filetype-css-128.png" parent="1" vertex="1">
          <mxGeometry x="679" y="400" width="43" height="43" as="geometry" />
        </mxCell>
        <mxCell id="XEjkH3KJKKS50XLXe-Jg-2" value="&lt;div style=&quot;font-size: 30px;&quot;&gt;gunicorn spawns the fast api app&lt;/div&gt;&lt;div style=&quot;font-size: 30px;&quot;&gt;and serves the backend on localhost:9000&amp;nbsp;&lt;/div&gt;" style="text;html=1;align=center;verticalAlign=middle;resizable=0;points=[];autosize=1;strokeColor=none;fillColor=none;fontColor=#FF6E42;labelBackgroundColor=default;" parent="1" vertex="1">
          <mxGeometry x="530" y="260" width="590" height="90" as="geometry" />
        </mxCell>
        <mxCell id="0TwDVQOeFUiZ3AnszSH6-1" value="" style="shape=image;verticalLabelPosition=bottom;labelBackgroundColor=default;verticalAlign=top;aspect=fixed;imageAspect=0;image=https://www.jetbrains.com/pycharm/guide/assets/fastapi-6837327b.svg;" vertex="1" parent="1">
          <mxGeometry x="618.75" y="160" width="79.5" height="79.5" as="geometry" />
        </mxCell>
        <mxCell id="0TwDVQOeFUiZ3AnszSH6-2" value="" style="shape=image;verticalLabelPosition=bottom;labelBackgroundColor=default;verticalAlign=top;aspect=fixed;imageAspect=0;image=https://upload.wikimedia.org/wikipedia/commons/thumb/9/95/Vue.js_Logo_2.svg/1200px-Vue.js_Logo_2.svg.png;" vertex="1" parent="1">
          <mxGeometry x="677.25" y="214.57000000000002" width="42" height="36.43" as="geometry" />
        </mxCell>
        <mxCell id="0TwDVQOeFUiZ3AnszSH6-4" value="&lt;div style=&quot;font-size: 30px;&quot;&gt;pm2 spawns the vue&amp;nbsp;&lt;/div&gt;&lt;div style=&quot;font-size: 30px;&quot;&gt;frontend on port 3000&amp;nbsp;&lt;/div&gt;&lt;div style=&quot;font-size: 30px;&quot;&gt;which is then reverse&amp;nbsp;&lt;/div&gt;&lt;div style=&quot;font-size: 30px;&quot;&gt;proxied to apache&lt;/div&gt;&lt;div style=&quot;font-size: 30px;&quot;&gt;who then serves&amp;nbsp;&lt;/div&gt;&lt;div style=&quot;font-size: 30px;&quot;&gt;it over TLS&lt;/div&gt;" style="text;html=1;align=center;verticalAlign=middle;resizable=0;points=[];autosize=1;strokeColor=none;fillColor=none;fontColor=#FF6E42;labelBackgroundColor=default;" vertex="1" parent="1">
          <mxGeometry x="150" y="289" width="320" height="230" as="geometry" />
        </mxCell>
        <mxCell id="0TwDVQOeFUiZ3AnszSH6-5" value="" style="shape=image;html=1;verticalAlign=top;verticalLabelPosition=bottom;labelBackgroundColor=#ffffff;imageAspect=0;aspect=fixed;image=https://cdn0.iconfinder.com/data/icons/phosphor-light-vol-2/256/file-vue-light-128.png" vertex="1" parent="1">
          <mxGeometry x="625.25" y="610" width="58" height="58" as="geometry" />
        </mxCell>
      </root>
    </mxGraphModel>
  </diagram>
</mxfile>
